/* XPM */
static char *result[] = {
/* columns rows colors chars-per-pixel */
"50 50 48 1 ",
"  c gray7",
". c #131212",
"X c #121312",
"o c #131312",
"O c #121213",
"+ c #131213",
"@ c #121313",
"# c #131313",
"$ c #FE0242",
"% c #FF0242",
"& c #FE0342",
"* c #FF0342",
"= c #FF0243",
"- c #FE0343",
"; c #FF0343",
": c #647292",
"> c #657292",
", c #647392",
"< c #657392",
"1 c #647293",
"2 c #657293",
"3 c #647393",
"4 c #657393",
"5 c #00CDF8",
"6 c #01CDF8",
"7 c #00CCF9",
"8 c #00CDF9",
"9 c gray62",
"0 c #F68086",
"q c #F78086",
"w c #F68186",
"e c #F78186",
"r c #F68087",
"t c #F78087",
"y c #F68187",
"u c #F78187",
"i c #C6CEDC",
"p c #C7CEDC",
"a c #C6CFDC",
"s c #C7CFDC",
"d c #C6CEDD",
"f c #C7CEDD",
"g c #C6CFDD",
"h c #C7CFDD",
"j c #FEFEFF",
"k c #FFFEFF",
"l c #FEFFFF",
"z c white",
/* pixels */
"9999999999999999999999999zzzzzzzzzzzzzzzzzo#oOzzzz",
"9999999999999999999999999zzzzzzzzzzzzzzzX@Xgh+Xzzz",
"9999999999999999999999999zzzzzzzzzzzzzzz#hpsaiO.zz",
"999999999999@@99999999999zzzzzzzzz#..zzz@#dfihs#zz",
"99999999999O+++9999999999zzzzzzzzz++ zzzz#.ip43+zz",
"9999999999X pp 9999999999zzzzzzzz# h.Xzzzz.@iff#zz",
"9999999999+shipO999999999zzzzzzz ohpf+zzzzzXOi>+zz",
"999999999+Xpepp.@99999999zzzzzzz#giya##zzzzz aaO#z",
"999999999ohiywdfX99999999zzzzzzo#iw0fdOzzzzzz.gd.z",
"99999999X ihyuehX 9999999zzzzzX#aitwup#zzzzzz h,#z",
"99999999#@ayw0rfaoO999999zzzzX@fhrturh Xzzzzz.sp.z",
"9999999@.dseuuqqdi+ o+O.O++ @.gpryy0yfsX#zzzz@h1Oz",
"9999999 siu0y0yefpOoffafsih#@sdhuyuyurgiO#zzzOfs#z",
"999999#+fasgfhdpidgadahdpiihshfdppdshhhdgozzzXd1@z",
"99999.opdigspsfipihhpgagsdsadssspgspdihhhoozz+gf z",
"99999@fgisffhiaggpasigdfgpihffsgifisdphddi +zof2.z",
"9999@Osisdfafhiaagfagispaihfhigpfidshifipfi z aaXz",
"9999Xhhifisadisgpfsfpdfpapsdssagaspfassidpg+z#f<oz",
"9999#pdidgdgihhsdasgfgfassfadassdgsgiifaddpo##psoz",
"9999#hdsssafhphfhpapO@spiggha@#sahahpdphdifs Xs1.z",
"9999OfidffpaiiddaafskXagafhhaz+dgidgdisgdpgaX+fhXz",
"999 @ggpgdsifidiihsz8#ddsdahj7#daiipffhisfii+Oh2Xz",
"999Oadfssaafhdgihgik5@pasafdl6.sgpgpidhdiahsd ph@z",
"999XifhagagfyyuafddX@ dggifpo Ogifyeyfpfpggai a #z",
"999Xggashsifyyydgiphdfphdgpssppffhyyyahafahdf.h@zz",
"zzz.dppsasfaryyaisihdihhufhfpddagdyyypdissihhOg@99",
"zzzXfsghfshdahpgX+OXOdpyt0dg@#O+#hpfiifpfgfif+d@99",
"zzz#hadpgdsspsgppggpsiiwreddsdfpdgagiihhiggfg#a+99",
"zzzXahgasdsfddps+.@Osipp;dppsO XXhpssapafifahOd.99",
"zzz+dhfgpfai1,2:3agps&da-gh-gahps234:adfdhgiX.i 99",
"zzz@daghpf2<,12,<dX h&$*&&%=aoOia:3,2,1333ps+sao99",
"zzz :212:<,<>42,4iihgafafsishsfif<<34>12>>:1@pp#99",
"zzzo13><:44:<>1:2igifsadpgpsssgdi:3::4:22<,>Xf+O99",
"zzz+<1122,<<343:gphaadpdsifdsgdshd,,>,2><11>Of#999",
"zzz#314:22<233sfhiifdahdhhiggadsdpadgf212:31+@ 999",
"zzz@<42<dfhhhagghsphshfhpgfdpdaaaipphhhhafhi.+9999",
"zzz Xasfiiagif:4212ssdpffgdsgg>144asphhpggff.#9999",
"zzzz#ahfgahii>,2141ppaaafiisss1<,4>aaisaighp@99999",
"zzzz fisidpgf<<2>4:dsdhhddgdhf:2:,<224<gaiss.99999",
"zzzz.hisais,3>4<3<,gghsddsgsds3<22242,:43ii#@99999",
"zzzz@+p,,33>:2>:::gaifipddffgg4>:2><4:<<3fhX999999",
"zzzzz.f124,,,>443dpasfagahhipps1<14::2<12ggX999999",
"zzzzzOO34:3<4:32>gadpdihfsigpaadfpp1,:>>4aoo999999",
"zzzzzzX>344<<>fiifiapiphsdafhdidahdfi31<3.+9999999",
"zzzzzzz fpdsipidgaghihdhaissagfidhfigfpp#+99999999",
"zzzzzzz.@hghisghhsiahgdfdagggfppapiphgp@O999999999",
"zzzzzzzzO.ahdpdshhisppshsgsfgipsadfifp@O9999999999",
"zzzzzzzzzooO +ah.dXp+igpaffOs@g+sfd @ o99999999999",
"zzzzzzzzzzzzzO#X.oo@O@O+XX@ ++.@@O# 99999999999999",
"zzzzzzzzzzzzzzzzzzzzzzzzz9999999999999999999999999"
};
