/* XPM */
static char *result[] = {
/* columns rows colors chars-per-pixel */
"50 50 48 1 ",
"  c gray7",
". c #131212",
"X c #121312",
"o c #131312",
"O c #121213",
"+ c #131213",
"@ c #121313",
"# c #131313",
"$ c #FE0242",
"% c #FF0242",
"& c #FE0342",
"* c #FF0342",
"= c #FF0243",
"- c #FE0343",
"; c #FF0343",
": c #647292",
"> c #657292",
", c #647392",
"< c #657392",
"1 c #647293",
"2 c #657293",
"3 c #647393",
"4 c #657393",
"5 c #00CDF8",
"6 c #01CDF8",
"7 c #00CCF9",
"8 c #00CDF9",
"9 c #F68086",
"0 c #F78086",
"q c #F68186",
"w c #F78186",
"e c #F68087",
"r c #F78087",
"t c #F68187",
"y c #F78187",
"u c #C6CEDC",
"i c #C7CEDC",
"p c #C6CFDC",
"a c #C7CFDC",
"s c #C6CEDD",
"d c #C7CEDD",
"f c #C6CFDD",
"g c #C7CFDD",
"h c #FEFEFF",
"j c #FFFEFF",
"k c #FEFFFF",
"l c white",
"z c None",
/* pixels */
"zzzzzzzzzzzzzzzzzzzzzzzzzzzzzzzzzzzzzzzzzzo#oOzzzz",
"zzzzzzzzzzzzzzzzzzzzzzzzzzzzzzzzzzzzzzzzX@Xfg+Xzzz",
"zzzzzzzzzzzzzzzzzzzzzzzzzzzzzzzzzzzzzzzz#giapuO.zz",
"zzzzzzzzzzzz@@zzzzzzzzzzzzzzzzzzzz#..zzz@#sduga#zz",
"zzzzzzzzzzzO+++zzzzzzzzzzzzzzzzzzz++ zzzz#.ui43+zz",
"zzzzzzzzzzX ii zzzzzzzzzzzzzzzzzz# g.Xzzzz.@udd#zz",
"zzzzzzzzzz+aguiOzzzzzzzzzzzzzzzz ogid+zzzzzXOu>+zz",
"zzzzzzzzz+Xiwii.@zzzzzzzzzzzzzzz#futp##zzzzz ppO#z",
"zzzzzzzzzogutqsdXzzzzzzzzzzzzzzo#uq9dsOzzzzzz.fs.z",
"zzzzzzzzX ugtywgX zzzzzzzzzzzzX#purqyi#zzzzzz g,#z",
"zzzzzzzz#@ptq9edpoOzzzzzzzzzzX@dgeryeg Xzzzzz.ai.z",
"zzzzzzz@.sawyy00su+ o+O.O++ @.fiett9tdaX#zzzz@g1Oz",
"zzzzzzz auy9t9twdiOoddpdaug#@asgytytyefuO#zzzOda#z",
"zzzzzz#+dpafdgsiusfpspgsiuugagdsiisagggsfozzzXs1@z",
"zzzzz.oisufaiaduiuggifpfasapsaaaifaisugggoozz+fd z",
"zzzzz@dfuaddgupffipaufsdfiugddafuduasigssu +zod2.z",
"zzzz@Oauasdpdguppfdpfuaipugdgufidusaguduidu z ppXz",
"zzzzXgguduapsuafidadisdipiasaapfpaidpaausif+z#d<oz",
"zzzz#isusfsfuggaspafdfdpaadpspaasfafuudpssio##iaoz",
"zzzz#gsaaapdgigdgipiO@aiuffgp@#apgpgisigsuda Xa1.z",
"zzzzOdusddipuussppdajXpfpdggpl+sfusfsuafsifpX+dgXz",
"zzz @ffifsaudusuugal8#ssaspgh7#spuuiddguaduu+Og2Xz",
"zzzOpsdaappdgsfugfuj5@ipapdsk6.afifiusgsupgas ig@z",
"zzzXudgpfpfdttypdssX@ sffudio Ofudtwtdidiffpu p #z",
"zzzXffpagaudtttsfuigsdigsfiaaiiddgtttpgpdpgsd.g@zz",
"zzz.siiapadpettpuaugsuggydgdisspfstttisuaauggOf@zz",
"zzzXdafgdagspgifX+OXOsitr9sf@#O+#giduudidfdud+s@zz",
"zzz#gpsifsaaiafiiffiauuqewssasdisfpfuugguffdf#p+zz",
"zzzXpgfpasadssia+.@Oauii;siiaO XXgiaapipdudpgOs.zz",
"zzz+sgdfidpu1,2:3pfia&sp-fg-fpgia234:psdsgfuX.u zz",
"zzz@spfgid2<,12,<sX g&$*&&%=poOup:3,2,1333ia+apozz",
"zzz :212:<,<>42,4uugfpdpdauagadud<<34>12>>:1@ii#zz",
"zzzo13><:44:<>1:2ufudapsifiaaafsu:3::4:22<,>Xd+Ozz",
"zzz+<1122,<<343:figppsisaudsafsags,,>,2><11>Od#zzz",
"zzz#314:22<233adguudspgsgguffpsasipsfd212:31+@ zzz",
"zzz@<42<sdgggpffgaigagdgifdsispppuiiggggpdgu.+zzzz",
"zzz Xpaduupfud:4212aasiddfsaff>144paiggiffdd.#zzzz",
"zzzz#pgdfpguu>,2141iipppduuaaa1<,4>ppuapufgi@zzzzz",
"zzzz duausifd<<2>4:sasggssfsgd:2:,<224<fpuaa.zzzzz",
"zzzz.guapua,3>4<3<,ffgassafasa3<22242,:43uu#@zzzzz",
"zzzz@+i,,33>:2>:::fpuduissddff4>:2><4:<<3dgXzzzzzz",
"zzzzz.d124,,,>443sipadpfpgguiia1<14::2<12ffXzzzzzz",
"zzzzzOO34:3<4:32>fpsisugdaufippsdii1,:>>4poozzzzzz",
"zzzzzzX>344<<>duudupiuigaspdgsuspgsdu31<3.+zzzzzzz",
"zzzzzzz disauiusfpfgugsgpuaapfdusgdufdii#+zzzzzzzz",
"zzzzzzz.@gfguafggaupgfsdspfffdiipiuigfi@Ozzzzzzzzz",
"zzzzzzzzO.pgsisagguaiiagafadfuiapsdudi@Ozzzzzzzzzz",
"zzzzzzzzzooO +pg.sXi+ufipddOa@f+ads @ ozzzzzzzzzzz",
"zzzzzzzzzzzzzO#X.oo@O@O+XX@ ++.@@O# zzzzzzzzzzzzzz",
"zzzzzzzzzzzzzzzzzzzzzzzzzzzzzzzzzzzzzzzzzzzzzzzzzz"
};
