/* XPM */
static char *result[] = {
/* columns rows colors chars-per-pixel */
"50 50 6 1 ",
"  c black",
". c #9E5128",
"X c #D68137",
"o c #EBE12C",
"O c gray62",
"+ c gray98",
/* pixels */
"OOOOOOOOOOOOOOOOOOOOOOOOO+++++++++++++++++++++++++",
"OOOOOOOOOOOOOOOOOOOOOOOOO+++++++++++++++++++++++++",
"OOOOOOOOOOOOOOOOOOOOOOOOO+++++++++++++++++++++++++",
"OOOOOOOOOOOOOOOOOOOOOOOOO+++++++++++++++++++++++++",
"OOOOOOOOOOOOOOOOOOOOOOOOO+++++++++++++++++++++++++",
"OOOOOOOOOOOOOOOOOOOOOOOO.+++++++++++++++++++++++++",
"OOOOOOOOOOOOOOOOOOOOOOO...++++++++++++++++++++++++",
"OOOOOOOOOOOOOOOOOOOOOO.....+++++++++++++++++++++++",
"OOOOOOOOOOOOOOOOOOOOO.......++++++++++++++++++++++",
"OOOOOOOOOOOOOOOOOOOOOOOOO+++++++++++++++++++++++++",
"OOOOOOOOOOOOOOOOOOOOO.......++++++++++++++++++++++",
"OOOOOOOOOO.....OOO...XXXXXXX...+++.....+++++++++++",
"OOOOOOOOOO....OO..XXXXXXoXXXXXX..++....+++++++++++",
"OOOOOOOOOO...OO.XXXXXoXoooooXXXXX.++...+++++++++++",
"OOOOOO        .X  Xooooo  oo   X           +++++++",
"OOOOOO        XX  oooooo  oo   o           +++++++",
"OOOOOO        XX   oooo   oo   o           +++++++",
"OOOOOO  OOOO.Xooo  oooo  ooo   oooXX   +++++++++++",
"OOOOOO  OOO.XXXoo   oo   ooo   oooXX   +++++++++++",
"OOOOOO  OOO.XXoooo  oo  oooo   ooooo   +++++++++++",
"OOOOOO  OOO.XXoooo      oooo   ooooX   +++++++++++",
"OOOOOO  .O.XXoooooo    ooooo   ooooo   +.+++++++++",
"OOOOOO      Xoooooo    ooooo   ooooX   +..++++++++",
"OOOOOO      oooooooo   ooooo   ooooo   +...+++++++",
"OOOOO.      Xooooooo   ooooo   ooooo   +....++++++",
"++++++  .+.XXXooooo    ooooo   ooooo   O...OOOOOOO",
"++++++  .+.XXoooooo     oooo   ooooX   O..OOOOOOOO",
"++++++  .+.XXoooooo  o  oooo   ooooo   O.OOOOOOOOO",
"++++++  +++.XXoooo   o   ooo   ooooX   OOOOOOOOOOO",
"++++++  +++.XXoooo  ooo  ooo   ooooX   OOOOOOOOOOO",
"++++++  +++.XXXXo   ooo   oo   oooXX   OOOOOOOOOOO",
"++++++  ++++.XXoo  ooooo  oo   oooXX   OOOOOOOOOOO",
"++++++         X   ooooo   o   ooXXX   OOOOOOOOOOO",
"++++++         X  ooooooo  o   oXXX.   OOOOOOOOOOO",
"++++++         X  Xoooooo  o   XXX.O   OOOOOOOOOOO",
"++++++++++..+++.XXXXXoXoooooXXXXX.OOO..OOOOOOOOOOO",
"++++++++++...+++..XXXXXoXXoXXXX..OOO...OOOOOOOOOOO",
"++++++++++....++++...XXXXXXX...OOOO....OOOOOOOOOOO",
"++++++++++.....++++++.......OOOOOO.....OOOOOOOOOOO",
"+++++++++++++++++++++++++OOOOOOOOOOOOOOOOOOOOOOOOO",
"+++++++++++++++++++++.......OOOOOOOOOOOOOOOOOOOOOO",
"++++++++++++++++++++++.....OOOOOOOOOOOOOOOOOOOOOOO",
"+++++++++++++++++++++++...OOOOOOOOOOOOOOOOOOOOOOOO",
"++++++++++++++++++++++++.OOOOOOOOOOOOOOOOOOOOOOOOO",
"+++++++++++++++++++++++++OOOOOOOOOOOOOOOOOOOOOOOOO",
"+++++++++++++++++++++++++OOOOOOOOOOOOOOOOOOOOOOOOO",
"+++++++++++++++++++++++++OOOOOOOOOOOOOOOOOOOOOOOOO",
"+++++++++++++++++++++++++OOOOOOOOOOOOOOOOOOOOOOOOO",
"+++++++++++++++++++++++++OOOOOOOOOOOOOOOOOOOOOOOOO",
"+++++++++++++++++++++++++OOOOOOOOOOOOOOOOOOOOOOOOO"
};
