/* XPM */
static char *_86c8248e9d643b1f6b60ae334190bcaLXPiAhJ7RUnDCDWC[] = {
/* columns rows colors chars-per-pixel */
"50 50 17 1 ",
"  c None",
". c gray7",
"X c #131212",
"o c #121312",
"O c #131312",
"+ c #121213",
"@ c #131213",
"# c #121313",
"$ c #131313",
"% c #00CCF8",
"& c #01CCF8",
"* c #00CDF8",
"= c #01CDF8",
"- c #00CCF9",
"; c #01CCF9",
": c #00CDF9",
"> c #01CDF9",
/* pixels */
"                                                  ",
"                                                  ",
"                                                  ",
"                                                  ",
"                                                  ",
"                                                  ",
"                                                  ",
"                                                  ",
"                                                  ",
"                                                  ",
"                                                  ",
"                                                  ",
"                                                  ",
"                                                  ",
"                                     OO#O$        ",
"                        OO           O---#O       ",
"                         O$          #=-===#@     ",
"                          @@        O---===-#     ",
"                  OO       @O       O--#$$=-$$    ",
"                   O@       O@      O--#$==--$    ",
"                     OO      O  ###O$=-$$#====@   ",
"            OO        O@  @OOOO@#   $=----=--=$   ",
"             O@@       @O@O  O      $-::--*-==$   ",
"               OO  OOOOO     O      $-=:-=*===$   ",
"                #@#$   @O    O     @$-===-=-==#   ",
"        OO     @O O     O    O     @---=-=--=-O   ",
"         @OO@ O@  O@    O    O     @--==-----$#   ",
"            OOO    O    O    @     O===-=#OOO$    ",
"            OOO    OO   O   O@     O---OO         ",
"            O OO    @   @   @      O$-OO          ",
"     O@#@O O@  OO   O   O          OOOO           ",
"    $O---O@O    O   O                             ",
"  $O#----=-O#   O                                 ",
"  O;---==#O-$O  O                                 ",
"  @@--O@OOO--O                                    ",
"   @OO    O--O                                    ",
"          #=--O                                   ",
"          #---O                                   ",
"          ##--$                                   ",
"           #O##                                   ",
"                                                  ",
"                                                  ",
"                                                  ",
"                                                  ",
"                                                  ",
"                                                  ",
"                                                  ",
"                                                  ",
"                                                  ",
"                                                  "
};
