/* XPM */
static char *result[] = {
/* columns rows colors chars-per-pixel */
"50 50 19 1 ",
"  c gray7",
". c #131212",
"X c #121312",
"o c #131312",
"O c #121213",
"+ c #131213",
"@ c #121313",
"# c #131313",
"$ c #00CCF8",
"% c #01CCF8",
"& c #00CDF8",
"* c #01CDF8",
"= c #00CCF9",
"- c #01CCF9",
"; c #00CDF9",
": c #01CDF9",
"> c gray62",
", c white",
"< c None",
/* pixels */
">>>>>>>>>>>>>>>>>>>>>>>>>,,,,,,,,,,,,,,,,,,,,,,,,,",
">>>>>>>>>>>>>>>>>>>>>>>>>,,,,,,,,,,,,,,,,,,,,,,,,,",
">>>>>>>>>>>>>>>>>>>>>>>>>,,,,,,,,,,,,,,,,,,,,,,,,,",
">>>>>>>>>>>>>>>>>>>>>>>>>,,,,,,,,,,,,,,,,,,,,,,,,,",
">>>>>>>>>>>>>>>>>>>>>>>>>,,,,,,,,,,,,,,,,,,,,,,,,,",
">>>>>>>>>>>>>>>>>>>>>>>>>,,,,,,,,,,,,,,,,,,,,,,,,,",
">>>>>>>>>>>>>>>>>>>>>>>>>,,,,,,,,,,,,,,,,,,,,,,,,,",
">>>>>>>>>>>>>>>>>>>>>>>>>,,,,,,,,,,,,,,,,,,,,,,,,,",
">>>>>>>>>>>>>>>>>>>>>>>>>,,,,,,,,,,,,,,,,,,,,,,,,,",
">>>>>>>>>>>>>>>>>>>>>>>>>,,,,,,,,,,,,,,,,,,,,,,,,,",
">>>>>>>>>>>>>>>>>>>>>>>>>,,,,,,,,,,,,,,,,,,,,,,,,,",
">>>>>>>>>>>>>>>>>>>>>>>>>,,,,,,,,,,,,,,,,,,,,,,,,,",
">>>>>>>>>>>>>>>>>>>>>>>>>,,,,,,,,,,,,,,,,,,,,,,,,,",
">>>>>>>>>>>>>>>>>>>>>>>>>,,,,,,,,,,,,,,,,,,,,,,,,,",
">>>>>>>>>>>>>>>>>>>>>>>>>,,,,,,,,,,,,ooXX.,,,,,,,,",
">>>>>>>>>>>>>>>>>>>>>>>> o,,,,,,,,,,,o:&;o.,,,,,,,",
">>>>>>>>>>>>>>>>>>>>>>>>> #,,,,,,,,,,@&:;;;.+,,,,,",
">>>>>>>>>>>>>>>>>>>>>>>>>,+#,,,,,,,,.;&&&&;;.,,,,,",
">>>>>>>>>>>>>>>>>>..>>>>>,,+.,,,,,,,+;;+#@:=o#,,,,",
">>>>>>>>>>>>>>>>>>>.@>>>>,,,oO,,,,,,o&;O.;;=;@,,,,",
">>>>>>>>>>>>>>>>>>>>> o>>,,,, ,, X#O+&=.o.;&;;.,,,",
">>>>>>>>>>>>.o>>>>>>>>o#>,OX...+ ,,,+:;&&$;==&.,,,",
">>>>>>>>>>>>>o+O>>>>>>>#X#.,,.,,,,,,@;;=&$&-;&O,,,",
">>>>>>>>>>>>>>>. >>.o..+>,,,,X,,,,,, &*;=:*:;&+,,,",
">>>>>>>>>>>>>>>>o@o@>>>O.<,,,o,,,,,+#&&;&=*;**o,,,",
",,,,,,,,.o,,,,,O ,O,,,,,o>>>>o>>>>>#;&=;;&;:&=o>>>",
",,,,,,,,,# .O,.+,,o#,,,,.>>>> >>>>>+;=:*:=;=:+X>>>",
",,,,,,,,,,,,.  ,,,,X,,,, >>>>+>>>>>.:::-*..# .>>>>",
",,,,,,,,,,,,XX ,,,,..,,,.>>>X+>>>>>#*;=o+>>>>>>>>>",
",,,,,,,,,,,,o, o,,,,+,,,@>>>O>>>>>>..=o+>>>>>>>>>>",
",,,,,O#o+X,X+,, o,,, ,,,.>>>>>>>>>> #o >>>>>>>>>>>",
",,,,.o::;.O.,,,,+,,,X,,,,>>>>>>>>>>>>>>>>>>>>>>>>>",
",,+Oo=;:;;;. ,,, ,,,,,,,,>>>>>>>>>>>>>>>>>>>>>>>>>",
",,o=&$:*% .*.#,,#,,,,,,,,>>>>>>>>>>>>>>>>>>>>>>>>>",
",,++=:.+o#+&; ,,,,,,,,,,,>>>>>>>>>>>>>>>>>>>>>>>>>",
",,,#XX,,,, ;:O,,,,,,,,,,,>>>>>>>>>>>>>>>>>>>>>>>>>",
",,,,,,,,,,O&&;+,,,,,,,,,,>>>>>>>>>>>>>>>>>>>>>>>>>",
",,,,,,,,,,#;&;#,,,,,,,,,,>>>>>>>>>>>>>>>>>>>>>>>>>",
",,,,,,,,,, @;;+,,,,,,,,,,>>>>>>>>>>>>>>>>>>>>>>>>>",
",,,,,,,,,,,Oo@ ,,,,,,,,,,>>>>>>>>>>>>>>>>>>>>>>>>>",
",,,,,,,,,,,,,,,,,,,,,,,,,>>>>>>>>>>>>>>>>>>>>>>>>>",
",,,,,,,,,,,,,,,,,,,,,,,,,>>>>>>>>>>>>>>>>>>>>>>>>>",
",,,,,,,,,,,,,,,,,,,,,,,,,>>>>>>>>>>>>>>>>>>>>>>>>>",
",,,,,,,,,,,,,,,,,,,,,,,,,>>>>>>>>>>>>>>>>>>>>>>>>>",
",,,,,,,,,,,,,,,,,,,,,,,,,>>>>>>>>>>>>>>>>>>>>>>>>>",
",,,,,,,,,,,,,,,,,,,,,,,,,>>>>>>>>>>>>>>>>>>>>>>>>>",
",,,,,,,,,,,,,,,,,,,,,,,,,>>>>>>>>>>>>>>>>>>>>>>>>>",
",,,,,,,,,,,,,,,,,,,,,,,,,>>>>>>>>>>>>>>>>>>>>>>>>>",
",,,,,,,,,,,,,,,,,,,,,,,,,>>>>>>>>>>>>>>>>>>>>>>>>>",
",,,,,,,,,,,,,,,,,,,,,,,,,>>>>>>>>>>>>>>>>>>>>>>>>>"
};
