/* XPM */
static char *result[] = {
/* columns rows colors chars-per-pixel */
"50 50 2 1 ",
"  c gray62",
". c gray98",
/* pixels */
"                         .........................",
"                         .........................",
"                         .........................",
"                         .........................",
"                         .........................",
"                         .........................",
"                         .........................",
"                         .........................",
"                         .........................",
"                         .........................",
"                         .........................",
"                         .........................",
"                         .........................",
"                         .........................",
"                         .........................",
"                         .........................",
"                         .........................",
"                         .........................",
"                         .........................",
"                         .........................",
"                         .........................",
"                         .........................",
"                         .........................",
"                         .........................",
"                         .........................",
".........................                         ",
".........................                         ",
".........................                         ",
".........................                         ",
".........................                         ",
".........................                         ",
".........................                         ",
".........................                         ",
".........................                         ",
".........................                         ",
".........................                         ",
".........................                         ",
".........................                         ",
".........................                         ",
".........................                         ",
".........................                         ",
".........................                         ",
".........................                         ",
".........................                         ",
".........................                         ",
".........................                         ",
".........................                         ",
".........................                         ",
".........................                         ",
".........................                         "
};
