/* XPM */
static char *result[] = {
/* columns rows colors chars-per-pixel */
"50 50 4 1 ",
"  c black",
". c #D50000",
"X c #03A9F4",
"o c None",
/* pixels */
"oooooooooooooooooooooooooooooooooooooooooooooooooo",
"oooooooooooooooooooooooooooooooooooooooooooooooooo",
"oooooooooooooooooooooooooooooooooooooooooooooooooo",
"oooooooooooooooooooooooooooooooooooooooooooooooooo",
"oooooooooooooooooooooooooooooooooooooooooooooooooo",
"oooooooooooooooooooooooooooooooooooooooooooooooooo",
"oooooooooooooooooooooooooooooooooooooooooooooooooo",
"oooooooooooooooooooooooooooooooooooooooooooooooooo",
"oooooooooooooooooooooooooooooooooooooooooooooooooo",
"oooooooooooooooooooooooooooooooooooooooooooooooooo",
"oooooooooooooooooooooooooooooooooooooooooooooooooo",
"oooooooooooooooooooooooooooooooooooooooooooooooooo",
"oooooooooooooooooooooooooooooooooooooooooooooooooo",
"oooooooooooooooooooooooooooooooooooooooooooooooooo",
"oooooooooooooooooooooooooooooooooooooooooooooooooo",
"oooooooooooooooooooooooooooooooooooooooooooooooooo",
"ooooooooooooooooooo             oooooooooooooooooo",
"ooooooooooooooo      .. ..          oooooooooooooo",
"oooooooooooo        .......            ooooooooooo",
"oooooooooo          .......              ooooooooo",
"ooooooooo            .....                oooooooo",
"ooooooo               ...                   oooooo",
"oooooo                 .               X     ooooo",
"ooooo      XX   XX             X    X  X      oooo",
"ooooo       X  XX              XX  XX  X      oooo",
"oooo        X X                 XX X   X       ooo",
"oooo        XXX  X X XX XX XX XX XXX   X       ooo",
"oooo         X   X X X X X X X X  X    X       ooo",
"oooo         X   X X X   X X   X  X            ooo",
"oooo         X   XXX X   X X   X  X    X       ooo",
"ooooo        X                    X           oooo",
"ooooo     X  X                    X           oooo",
"oooooo     XXX      XXXXXXXXXXXXXXX          ooooo",
"oooooo                                      oooooo",
"oooooo                                    oooooooo",
"oooooo                                   ooooooooo",
"oooooo                                 ooooooooooo",
"oooooo                              oooooooooooooo",
"oooooo                          oooooooooooooooooo",
"oooooo          oooooooooooooooooooooooooooooooooo",
"ooooo         oooooooooooooooooooooooooooooooooooo",
"ooooo       oooooooooooooooooooooooooooooooooooooo",
"ooooo     oooooooooooooooooooooooooooooooooooooooo",
"oooo     ooooooooooooooooooooooooooooooooooooooooo",
"ooo    ooooooooooooooooooooooooooooooooooooooooooo",
"ooo  ooooooooooooooooooooooooooooooooooooooooooooo",
"oooooooooooooooooooooooooooooooooooooooooooooooooo",
"oooooooooooooooooooooooooooooooooooooooooooooooooo",
"oooooooooooooooooooooooooooooooooooooooooooooooooo",
"oooooooooooooooooooooooooooooooooooooooooooooooooo"
};
