/* XPM */
static char *_9657bece1fa41f5edac8d9221d90a67Maxp6k7DYKB0ERT1[] = {
/* columns rows colors chars-per-pixel */
"50 50 30 1 ",
"  c #561C26",
". c #571C26",
"X c #561D26",
"o c #571D26",
"O c #561C27",
"+ c #571C27",
"@ c #561D27",
"# c #571D27",
"$ c #881E2A",
"% c #891E2A",
"& c #881F2A",
"* c #891F2A",
"= c #881E2B",
"- c #891E2B",
"; c #881F2B",
": c #891F2B",
"> c #C42430",
", c #C52430",
"< c #C42530",
"1 c #C52530",
"2 c #C42431",
"3 c #C52431",
"4 c #C52531",
"5 c #8A4836",
"6 c #8B4836",
"7 c #8A4936",
"8 c #8A4837",
"9 c #8B4837",
"0 c #8A4937",
"q c #8B4937",
/* pixels */
"11111111<o%%$$&$$$$$%&$$ *&=-&=*=-*=-**= 1>>>><>>>",
"11111111< %%$&$$$$%$$%$$ -=**-=-&=;--*-:@1><<><>>>",
"11111111< $$&%$$=$$=$$&$ -=&==-$:*&&--&&+>>3>>>><>",
"11111131> $%$$$$$$$$$$$$ -&*&=*&**&-&-*;+>3>><<>>>",
"11111111<o-%$$$$=$$%$$$$ -&&&%$-=*-***--+>>>>>>>>>",
"11111111<o--$$$$$$$$%$$$ &=*==-%;:*=&&-= >>,>>3>>>",
"11111111<o$=$==$$$$$$$$$ -=*--%&:=*==**- >><>>>><<",
"11111113< $$$-==&$$$$$&$ *--&&*-*&=&&&-- ><<<>>>>>",
"111111111 ==-=-==&==$=== *---*:*----*--- 1,<3133><",
"O+++  @@@   @O++       +#oo#  o#++     +       @+ ",
"+>>>>>>>>>11>><>                @o5575557755755555",
"+>>><<<>>>>>>>>>        @         5577755555555555",
"+>>>>><>>3>>>><>             +++  7555575555555559",
" >>>>>>>>>>>>>>>X      X     @++  7555575555555555",
" >>>>>>>>>>><>>>  X           +   5555585555555555",
" >>>>>>>>>>>>>><     XX           5575595555555755",
"+3>>>>>>><<<>>>>  X      o  @    o7555555595559555",
"+<>>3>>>>><<>>>>       o    @    @7q55555555577555",
"+>33>>13>>11>>>> @        o       7755655555777755",
" +#+@@OO +XX    @#o#     o o#oo@    o+##+##O#o X  ",
"555555557 -&--*=---*-=-$ &&=-=**-****=-- 800000q77",
"555555575+;;$=-------*--@=*=--&-==*=-*-& 800008077",
"555555787 ====*&&**&=*-* -=&&*-&&-==*==*o880000088",
"555555577 ====-=&==-*--& -&=*==----;**-; 880000087",
"755555555+==-==-&=&&&=*- ---&&=&-*-&&*:*X000qqqq00",
"555555555+==&==--*=-=--& -*--*-*-=&&-&*& 0070qq000",
"555555557+=--==***=&=-== =:*&*&***===-*&@770000000",
"555557557 =-$&-&=-=-*&=*@:*==*:=*--*---* 870000800",
"555555557+--===-=**-=--- --=-**==-**--=*@880q77800",
"  ++++++     +++           + @  @ o       XX  o#@ ",
" 555555555557555 ,<<>>>>1<>>>>1<< *-&**=-&:;&-&=&;",
" 555575555555577 ,<<>>>>>>>>>3<<1 =*&&===-&:===*==",
" 777555555555555 1>>>>>>>>3>>>>>>+--&-=*-*-*=*&--=",
" 755559579557597 >>>>>>3>>>>>>>>>O&=&===&&-===&--=",
"+557555759995575 <>>>>>>>>>>>>><< =*===&&=-=&=-==-",
" 555555555755555+>>>>>>>>>,>>>>>< *&*==-=-&=&&-&&-",
" 565555555575575+>>>>>>>3>>>>>3><+=-==-*&-:*=*-=--",
" 757565555655755+3>>>>>>>>>>>>>>>+&==-=*&-==&==*=-",
" 757777555757755O311>>1<,>>>>1<>> =*=*&*==*---&*-=",
"      o+++@    +O@O@OO  ++    @@          o   @ ++",
"        + &&&*;-==--=*&= &&*=-**--%-=*-=    @   ++",
"          -=-&*--=-&&&=* -&=-*&-%&*-&===#     o @ ",
"      +   --&=&-&-=-*;&=@-&=*&&-&-*=&=-=#   ++ o  ",
"      ++  *-=*--*-&**;;= -***==--&---*:=#  @++++  ",
"      o+  =*&&=**-=*--:=o==-*&&&*&&&*&&:          ",
"      ++  =***&&-*&*-=;;o=---*-&=*=-&:&;         @",
"         o&*&&&*--&-=&;& -*=&&-*=$&=*&**X         ",
"    o    o-:&**;=&*&*&:* :;&-==-*--=&*&*X         ",
"         X:::&**=*::-*=*+----*--&****&;;+++       ",
" X X@# @  @X@@o@  @   @ #o    o      @@@@   @  @##"
};
